Patient4_TMGait_0pt3_03_left_18_EMG.mot
version=1
nRows=33
nColumns=33
inDegrees=no
endheader
time	1LAddLong	2LGlutMax	3LGlutMed	4LIliopsoas	5LSemiMemb	6LBicFemLong	7LRecFem	8LVastMed	9LVastLat	10LGasMed	11LTibAnt	12lTibPost	13LPeroneusLong	14LSol	15LExtDigLong	16LFlexDigLong	17RAddLong	18RGlutMax	19RGlutMed	20RIliopsoas	21RSemiMemb	22RBicFemLong	23RRecFem	24RVastMed	25RVastLat	26RGasMed	27RTibAnt	28RTibPost	29RPeroneusLong	30RSol	31RExtDigLong	32RFlexDigLong
32.44	0.025635	0.043335	-0.082703	0.019379	0.042877	-0.051422	0.07843	0.001678	-0.015106	-0.036926	0.002136	0.000153	-0.090942	-0.065918	0.026093	0.008698	-0.003967	-0.041504	-0.20172	-0.01709	-0.17609	-0.023956	0.064392	-0.041199	-0.01236	0.000458	-0.050964	-0.001984	-0.25406	0.031128	0.001526	-0.019226
32.441	0.018463	0.024109	-0.14267	0.018463	-0.003662	0.009766	0.082703	0.001373	-0.007935	-0.019684	0.007477	0.002594	-0.094604	-0.10025	0.010681	0.002594	0.026398	-0.036163	-0.32318	-0.035858	-0.16953	-0.016937	0.070953	-0.070343	-0.029907	-0.000458	0.002136	-0.003052	0.029907	0.048828	-0.002289	-0.020752
32.442	0.014496	0.034332	-0.18799	0.019379	-0.051117	0.057831	0.091553	0.011444	0	0.018768	0.03891	0.002136	-0.052032	-0.10696	0.12817	-0.004883	0.021973	-0.026398	-0.26001	-0.066071	-0.20233	0.000153	0.075226	-0.089569	-0.028076	0.002899	0.023804	-0.001373	0.045319	0.047302	0.000916	-0.017395
32.443	0.009003	0.082397	0.023193	0.016174	-0.006104	0.05661	0.14374	0.007477	-0.02182	0.074768	0.037231	0.011444	0.065308	-0.11597	0.24109	-0.002136	0.019073	0.00473	-0.011902	-0.17197	-0.21454	-0.035553	0.006256	-0.051727	0.01709	0.006866	0.030975	-0.000916	0.074158	0.056915	-0.00473	-0.006104
32.444	0.007782	0.088654	0.25131	0.004883	0.098572	0.067444	0.15595	0.011902	-0.047302	0.15381	0.056152	0.00473	0.10788	-0.17349	0.006104	-0.001526	0.010986	0.076599	0.17624	-0.177	-0.22385	0.015869	-0.12924	-0.10971	0.058899	0.017242	0.011292	-0.004578	0.13138	0.072937	-0.001526	-0.012054
32.445	0.006866	0.065765	0.15991	0.014496	0.057526	0.066223	0.11185	0.012817	-0.052948	0.17975	0.049133	0.006409	0.054932	-0.11871	0.36316	-0.007477	-0.022583	0.051575	0.27679	-0.006409	-0.28778	0.065308	-0.16419	-0.099335	0.10178	0.01297	0.027466	-0.003967	0.12375	0.087433	0.00061	-0.013123
32.446	0.017853	-0.001068	0.076294	0.002747	0.025177	-0.002441	0.00473	0.020905	-0.058594	0.086823	-0.020905	0.00412	0.04776	0.012512	0.043793	-0.013428	-0.005646	-0.016327	-0.050201	0.1535	-0.29053	0.039673	-0.085754	-0.12085	0.070496	0.009308	0.054016	-0.000763	0.016632	0.034637	0.001678	-0.009003
32.447	0.026093	0.002899	0.071259	-0.000763	0.008698	-0.059204	-0.13702	0.021515	0.007782	0.078583	-0.02533	0.008392	0.039673	0.072632	-0.09613	-0.005035	-0.014801	-0.048523	0.22415	0.13611	-0.33203	-0.012665	-0.045624	-0.031738	0.10819	0.008545	0.036621	-0.001984	0.034332	0.011902	-0.002441	-0.009918
32.448	0.024872	0.007477	0.086975	-0.006104	0.013428	-0.11719	-0.080566	0.018005	0.11063	-0.05661	0.007477	0.008698	0.049591	0.011749	-0.23117	-0.006409	-0.0177	0.088348	0.57251	0.02655	-0.31784	0.016479	-0.068207	0.13229	0.13092	0.00946	-0.014343	-0.001526	0.1062	0.053101	-0.004272	0.002136
32.449	0.011902	0.052032	0.09964	0.007782	0.01236	-0.070038	0.046387	0.008087	0.065002	-0.2005	0.092316	0.006409	0.061798	-0.059509	-0.11276	-0.001984	-0.011292	0.063324	0.30304	-0.0177	-0.31357	-0.035553	-0.042114	0.15945	0.094757	0.002594	0.016785	-0.000763	0.058899	0.034637	-0.003357	-0.002136
32.45	0.009308	0.066986	0.079651	0.024109	0.019836	-0.021057	0.015259	0.013275	0.028381	-0.13733	0.092621	0.007629	0.054932	-0.11765	-0.004883	0.003967	-0.004578	0.045013	0.21561	-0.027771	-0.25803	-0.053864	0.036011	0.11581	0.042114	-0.001678	0.04837	-0.003357	-0.067902	0.046539	-0.00061	-0.011292
32.451	0.00824	0.049896	0.05249	0.011139	0.002441	0.048065	0.03067	0.007935	0.041199	-0.090942	0.088654	0.006256	0.032806	-0.16724	0.053101	-0.009918	0.003967	0.006256	0.072174	-0.064545	-0.18021	-0.042114	0.054016	-0.002441	0.010376	-0.002136	0.018921	0.000305	-0.047607	0.033722	-0.002289	-0.005341
32.452	0.014038	0.02182	-0.00412	0.006866	-0.011292	0.051575	0.031281	0.000153	0.077667	-0.081482	0.001678	0.020599	0.025177	-0.20386	0.048676	-0.00351	0.014801	0.035095	-0.64896	-0.039978	-0.27649	-0.055389	0.066986	-0.029755	0.014496	-0.007324	-0.016937	-0.000458	0.18784	0.028229	-0.000305	-0.015564
32.453	0.000153	0.014954	-0.027771	0.015869	-0.019989	0.066223	0.044403	-0.000916	0.07309	-0.080719	-0.045319	0.001068	0.025787	-0.16464	-0.016327	-0.000916	0.018921	-0.009766	-0.46158	-0.066986	-0.3688	-0.097198	0.084686	-0.047455	0.03952	-0.005188	0.007782	-0.002441	0.11017	0.03891	-0.002899	-0.012054
32.454	0.000763	0.03418	-0.041199	0.016937	0.006104	0.061798	0.017853	0.00061	-0.015259	-0.070953	-0.075226	0.006104	0.060272	0.01297	-0.015564	-0.008545	0.010986	0.031281	0.083923	-0.00946	-0.33066	-0.11673	0.068054	-0.020447	0.03952	-0.005341	0.020905	-0.002899	-0.033875	0.044098	-0.003357	-0.009766
32.455	-0.000763	0.032959	0.072174	0.005341	-0.013885	0.06546	0.049896	0.006714	-0.046387	-0.05661	0.015869	0.005188	0.070953	0.06134	0.28488	-0.010071	-0.001831	0.018463	-0.12482	0.10986	-0.12848	-0.1297	0.023499	-0.018005	0.050812	0.001373	0.020905	-0.002441	-0.061798	0.042267	0.001526	-0.016174
32.456	-0.032196	0.038147	0.13229	-0.018311	-0.022278	0.018311	0.078583	-0.002441	-0.027313	-0.042114	0.1796	0.011139	0.01236	0.15686	0.60242	-0.001221	-0.003052	0.020142	0.46906	0.056152	0.13611	-0.085602	0.005035	-0.022736	0.027771	0.000153	0.018921	-0.000153	-0.03891	0.021515	-0.015411	-0.012512
32.457	-0.001373	0.036316	0.057068	-0.005646	-0.011749	-0.018463	0.1181	-0.003204	0.020752	-0.036621	0.22858	0.005035	-0.084076	0.28763	0.22842	0.002441	0.015564	-0.003967	0.35095	0.005188	-0.016937	-0.055389	-0.039215	-0.03067	0.00473	0.000916	-0.06424	-0.001526	-0.018616	0.012665	-0.00824	-0.003052
32.458	0.005035	0.033722	0.032959	0.013428	0.021973	-0.040131	0.10162	-0.00824	0.03067	-0.027466	0.24841	0.006866	-0.070801	0.29221	0.019836	0.00412	0.050659	-0.039215	-0.10223	0.11047	-0.14374	-0.075989	-0.21515	-0.022125	0.004578	0.00061	-0.041656	-0.005341	-0.035858	0.011749	-0.001984	-0.010681
32.459	0.014954	0.014038	0.12024	0.00885	0.027466	-0.062103	0.066528	0.007019	0.054169	-0.061646	-0.099792	0.005035	0.066833	0.23056	-0.5542	0.014801	0.074615	-0.001068	-0.076599	0.060272	0.14145	-0.11261	-0.1976	-0.009613	0.005341	-0.000305	0.14389	-0.001984	0.050049	-0.009613	-0.001221	-0.011597
32.46	0.01297	0.03418	0.079041	0.00885	0.029144	-0.046234	0.071716	0.007019	0.002899	-0.059509	-0.23575	0.000916	0.12878	0.17716	-0.24658	-0.001984	0.037384	0.000458	-0.29556	0.03418	0.20065	-0.021667	-0.17624	0.00824	0.011902	-0.003357	0.016022	-0.002899	-0.015717	-0.016785	-0.004883	-0.003052
32.461	0.008545	-0.012512	0.10895	0.019073	0.014343	-0.051727	0.0914	0.003815	-0.057526	-0.030823	-0.15991	0.003662	0.14404	0.037689	-0.48248	-0.007477	-0.060272	-0.055237	-0.4982	0.080109	-0.34729	0.23834	-0.12344	0.061493	0.018463	-0.002747	-0.050659	-0.002136	-0.1619	-0.063019	-0.001373	-0.010071
32.462	0.006104	-0.009613	0.094452	0.001221	0.005188	-0.046539	0.057373	0.009918	-0.094757	-0.016632	-0.18539	0.005646	0.06424	0.016327	-0.48904	-0.013885	-0.10788	-0.04776	-0.21027	-0.018616	-0.56335	0.30365	-0.014801	0.1915	0.002747	0.002899	0.052643	-0.003357	-0.16434	-0.081635	-0.002441	-0.014038
32.463	0.011139	-0.010529	0.03479	0.004272	-0.005341	-0.007172	0.067596	0.014801	-0.083008	0.010986	-0.10773	0.00473	-0.046387	0.014801	-0.33783	-0.014496	-0.084534	-0.013733	0.17761	-0.047455	-0.29846	0.23209	0.093842	0.17548	-0.036316	0.009766	0.12878	-0.000305	-0.17654	-0.082703	-0.001831	-0.003357
32.464	0.006714	-0.012665	-0.002289	-0.023193	-0.014954	0.00885	0.020447	0.014191	-0.094147	0.0177	0.070648	0.000916	-0.14587	0.065918	0.082092	-0.01358	-0.057678	-0.033722	0.19333	0.03006	-0.21729	0.14221	0.072784	0.14984	-0.036926	0.005341	0.17242	-0.005493	0.13214	-0.074158	-0.003357	-0.015564
32.465	0.009918	-0.014496	0.051117	-0.010223	-0.035553	0.020447	0.016174	0.011139	-0.080261	-0.004883	0.34943	0.00473	-0.096283	0.12329	-0.00473	-0.013275	-0.047913	-0.029144	-0.081177	-0.006104	-0.29602	0.06012	0.12528	0.093079	-0.005188	0.00351	0.09613	-0.001373	0.6189	-0.018005	-0.004425	-0.007172
32.466	0.003967	-0.025482	0.062714	0.028229	-0.087891	-0.011749	0.05127	0.015259	-0.073853	-0.015106	0.35446	0.004578	-0.009308	0.077667	0.035706	0.005646	-0.01709	-0.009003	-0.1001	-0.040436	-0.26581	-0.015564	0.14847	0.031281	-0.021515	0.002441	0.077515	-0.005493	0.6282	0.13275	-0.008545	-0.007782
32.467	0.009766	-0.031128	0.062408	0.01358	-0.077362	-0.031128	-0.00473	0.013733	-0.028839	-0.022888	0.12955	0.003204	0.011902	0.044708	-0.23468	0.00412	0.012817	0.057831	0.017242	-0.10147	-0.33402	-0.028687	0.18295	-0.032043	-0.04715	0.001068	0.059204	-0.011749	0.24689	0.1149	-0.001373	-0.002289
32.468	0.0177	0.001678	0.046387	0.009003	-0.006561	-0.049438	-0.066376	0.000153	0.046692	-0.013428	-0.065765	0.004883	-0.13245	0.077209	-0.11871	-0.00061	0.033722	0.023193	-0.29114	-0.074158	-0.40436	-0.07309	0.14725	-0.0354	-0.037689	-0.001678	-0.12283	-0.001984	-0.78064	0.052795	-0.002441	-0.009766
32.469	0.015411	0.003357	0.021515	0.011902	0.079956	-0.092926	-0.019531	-0.00824	0.074768	0.023956	-0.16419	0.005646	-0.1944	0.14786	0.15366	-0.014648	0.022583	0.002899	-0.15472	-0.017548	-0.018768	-0.025024	0.011597	-0.046539	-0.044708	-0.02594	-0.11231	-0.009308	-0.83252	0.10605	-0.00412	-0.007782
32.47	0.005035	0.024872	0.024109	0.012817	0.036469	-0.066681	0.10422	0.007782	0.02121	0.000305	-0.19699	-0.001373	0.15991	0.14816	0.40955	0.005646	-0.013733	0.035858	-0.088043	0.13229	0.11688	-0.019073	-0.2507	-0.009766	-0.02182	-0.02655	-0.030975	-0.008698	-0.50049	0.17166	-0.00412	-0.013123
32.471	0.00473	0.023193	0.074005	-0.003052	-0.010986	-0.048065	0.13336	0.010986	0.007935	-0.026703	-0.12665	-0.006866	0.13992	0.15152	0.64728	-0.000763	-0.039063	0.006409	-0.079041	0.18265	0.003967	0.017395	-0.29831	0.1001	-0.010223	-0.029449	-0.022278	-0.004272	0.33493	0.11078	-0.00061	-0.011902
32.472	0.000153	0.035706	0.075989	0.005035	-0.001678	-0.002899	0.15305	0.007629	0.003052	-0.044403	-0.021515	0.007172	0.089874	0.08255	0.55344	0.003357	-0.029144	0.000458	-0.40894	0.075989	0.007629	0.013275	-0.17944	0.13168	-0.023346	-0.024414	-0.041962	-0.005798	0.88089	0.057831	-0.003052	-0.015411
